<?xml version="1.0" encoding="UTF-8"?>
<!DOCTYPE svg PUBLIC "-//W3C//DTD SVG 1.1//EN" "http://www.w3.org/Graphics/SVG/1.1/DTD/svg11.dtd">
<svg version="1.1" xmlns="http://www.w3.org/2000/svg" xmlns:xlink="http://www.w3.org/1999/xlink" x="0" y="0" width="160" height="160" viewBox="0, 0, 160, 160">
  <g id="Background">
    <rect x="0" y="0" width="160" height="160" fill="#FF1000" fill-opacity="0"/>
  </g>
  <g id="Layer_2">
    <path d="M11.882,-0 L148.118,-0 C154.68,-0 160,5.731 160,12.8 L160,147.2 C160,154.269 154.68,160 148.118,160 L11.882,160 C5.32,160 0,154.269 0,147.2 L0,12.8 C0,5.731 5.32,-0 11.882,-0 z" fill="#FC3300"/>
    <path d="M75.908,35.414 L74.932,34.961 L72.95,34.174 L70.99,33.447 L69.067,32.756 L67.182,32.1 L65.337,31.474 L63.531,30.878 L61.767,30.309 L60.042,29.767 L58.359,29.25 L56.715,28.758 L55.111,28.293 L53.548,27.851 L52.024,27.432 L50.538,27.038 L49.092,26.668 L47.684,26.319 L46.314,25.993 L44.982,25.691 L43.687,25.411 L42.429,25.152 L41.207,24.915 L40.022,24.698 L38.872,24.503 L37.756,24.33 L36.676,24.177 L35.629,24.044 L34.613,23.936 L33.631,23.85 L32.679,23.784 L31.76,23.737 L30.872,23.71 L30.014,23.703 L29.184,23.715 L28.382,23.747 L27.608,23.8 L26.859,23.873 L26.135,23.968 L25.433,24.084 L24.753,24.222 L24.093,24.385 L23.45,24.572 L22.825,24.787 L22.213,25.031 L21.616,25.308 L21.032,25.621 L20.463,25.973 L19.91,26.366 L19.38,26.802 L18.877,27.279 L18.409,27.795 L17.984,28.341 L17.608,28.911 L17.284,29.496 L17.014,30.088 L16.796,30.68 L16.626,31.268 L16.501,31.852 L16.391,32.68 L16.356,33.799 L16.437,34.947 L16.623,36.098 L16.902,37.262 L17.269,38.446 L17.717,39.655 L18.243,40.893 L18.842,42.16 L19.511,43.459 L20.248,44.789 L21.05,46.151 L21.914,47.544 L22.837,48.967 L23.816,50.419 L24.849,51.899 L25.934,53.405 L27.067,54.936 L28.245,56.492 L29.466,58.071 L30.725,59.672 L32.021,61.293 L33.351,62.932 L34.711,64.589 L36.1,66.261 L38.229,68.792 L41.139,72.21 L44.108,75.664 L48.62,80.882 L53.136,86.109 L56.106,89.577 L59.017,93.017 L61.147,95.569 L62.534,97.253 L63.895,98.925 L65.225,100.581 L66.52,102.219 L67.778,103.838 L68.995,105.436 L70.17,107.01 L71.298,108.56 L72.377,110.084 L73.403,111.578 L74.374,113.042 L75.286,114.475 L76.136,115.872 L76.921,117.232 L77.638,118.553 L78.283,119.831 L78.855,121.064 L79.35,122.247 L79.765,123.377 L80.098,124.448 L80.347,125.454 L80.511,126.388 L80.591,127.238 L80.591,127.993 L80.52,128.639 L80.437,128.994 L80.381,129.161 L80.311,129.344 L80.238,129.496 L80.166,129.617 L80.097,129.713 L80.029,129.791 L79.96,129.857 L79.885,129.921 L79.799,129.987 L79.691,130.063 L79.555,130.151 L79.385,130.252 L79.174,130.365 L78.92,130.487 L78.619,130.616 L78.271,130.748 L77.876,130.88 L77.435,131.009 L76.946,131.132 L76.412,131.248 L75.834,131.354 L75.212,131.448 L74.547,131.53 L73.839,131.598 L73.09,131.651 L72.3,131.689 L71.469,131.711 L70.596,131.715 L69.684,131.703 L68.731,131.673 L67.739,131.624 L66.705,131.558 L65.633,131.472 L64.519,131.368 L63.365,131.244 L62.17,131.101 L60.936,130.937 L59.66,130.754 L58.343,130.55 L56.986,130.326 L55.586,130.08 L54.145,129.814 L52.662,129.526 L51.137,129.218 L49.568,128.887 L47.958,128.535 L46.304,128.161 L44.607,127.765 L42.865,127.346 L41.081,126.904 L39.251,126.44 L37.377,125.953 L35.457,125.443 L33.493,124.909 L31.482,124.352 L29.426,123.771 L27.323,123.166 L25.174,122.537 L22.977,121.884 L20.733,121.206 L18.441,120.504 L16.101,119.777 L13.712,119.025 L12.501,118.64 L12.501,118.64 C10.923,118.143 8.766,119.238 7.683,121.086 C6.6,122.934 7,124.835 8.578,125.332 L9.804,125.715 L12.217,126.46 L14.583,127.181 L16.9,127.877 L19.171,128.548 L21.396,129.195 L23.574,129.818 L25.705,130.417 L27.792,130.992 L29.833,131.543 L31.829,132.071 L33.782,132.577 L35.689,133.059 L37.554,133.519 L39.376,133.956 L41.154,134.37 L42.891,134.763 L44.585,135.134 L46.238,135.483 L47.85,135.81 L49.422,136.117 L50.954,136.401 L52.446,136.665 L53.899,136.908 L55.313,137.131 L56.689,137.333 L58.028,137.515 L59.329,137.677 L60.594,137.819 L61.823,137.941 L63.016,138.043 L64.175,138.126 L65.3,138.189 L66.392,138.232 L67.451,138.257 L68.478,138.262 L69.475,138.247 L70.442,138.213 L71.38,138.159 L72.29,138.085 L73.174,137.99 L74.033,137.875 L74.867,137.738 L75.68,137.578 L76.471,137.394 L77.244,137.185 L77.999,136.949 L78.738,136.683 L79.462,136.386 L80.172,136.053 L80.867,135.683 L81.545,135.272 L82.205,134.819 L82.84,134.323 L83.446,133.785 L84.015,133.208 L84.54,132.6 L85.016,131.965 L85.437,131.314 L85.802,130.654 L86.112,129.991 L86.368,129.331 L86.574,128.677 L86.744,127.981 L86.905,126.991 L86.987,125.757 L86.949,124.534 L86.805,123.312 L86.564,122.081 L86.235,120.834 L85.822,119.567 L85.33,118.277 L84.761,116.961 L84.119,115.618 L83.407,114.248 L82.627,112.85 L81.784,111.426 L80.878,109.975 L79.915,108.498 L78.895,106.996 L77.822,105.47 L76.7,103.922 L75.53,102.352 L74.316,100.762 L73.059,99.154 L71.763,97.528 L70.433,95.886 L69.069,94.229 L67.675,92.559 L66.253,90.875 L64.077,88.332 L61.108,84.917 L58.084,81.481 L53.497,76.315 L48.916,71.172 L45.906,67.777 L42.959,64.421 L40.805,61.938 L39.401,60.303 L38.025,58.686 L36.682,57.088 L35.375,55.51 L34.106,53.955 L32.879,52.423 L31.696,50.918 L30.561,49.439 L29.478,47.989 L28.446,46.572 L27.471,45.188 L26.556,43.839 L25.705,42.526 L24.92,41.254 L24.204,40.023 L23.561,38.838 L22.993,37.701 L22.504,36.617 L22.096,35.59 L21.77,34.628 L21.527,33.737 L21.365,32.929 L21.281,32.216 L21.268,31.576 L21.301,31.153 L21.333,30.937 L21.371,30.752 L21.411,30.598 L21.451,30.471 L21.49,30.367 L21.529,30.276 L21.574,30.191 L21.631,30.104 L21.707,30.009 L21.812,29.902 L21.952,29.784 L22.134,29.655 L22.359,29.519 L22.629,29.379 L22.945,29.238 L23.308,29.1 L23.715,28.968 L24.166,28.844 L24.661,28.73 L25.197,28.628 L25.775,28.539 L26.393,28.464 L27.052,28.403 L27.75,28.357 L28.487,28.328 L29.263,28.315 L30.079,28.32 L30.932,28.342 L31.825,28.383 L32.756,28.441 L33.726,28.516 L34.738,28.606 L35.789,28.714 L36.879,28.841 L38.009,28.987 L39.179,29.152 L40.389,29.336 L41.639,29.541 L42.93,29.765 L44.262,30.009 L45.636,30.272 L47.052,30.555 L48.509,30.859 L50.009,31.184 L51.552,31.527 L53.139,31.892 L54.769,32.277 L56.443,32.681 L58.163,33.106 L59.927,33.552 L61.738,34.016 L63.595,34.5 L65.5,35.001 L67.454,35.52 L69.46,36.052 L71.519,36.595 L73.647,37.127 L74.76,37.352 C74.76,37.352 74.76,37.352 74.76,37.352 C75.215,37.499 75.842,37.185 76.159,36.65 C76.476,36.115 76.364,35.562 75.908,35.414 L75.908,35.414" fill="#000000"/>
    <path d="M90.079,39.883 L90.079,39.892 L90.086,39.968 L90.099,40.12 L90.119,40.346 L90.144,40.644 L90.176,41.014 L90.213,41.453 L90.256,41.96 L90.304,42.533 L90.357,43.172 L90.415,43.874 L90.478,44.639 L90.546,45.464 L90.618,46.348 L90.694,47.291 L90.774,48.289 L90.858,49.343 L90.946,50.45 L91.036,51.609 L91.131,52.818 L91.228,54.076 L91.328,55.381 L91.43,56.733 L91.535,58.129 L91.642,59.568 L91.752,61.049 L91.863,62.57 L91.976,64.13 L92.147,66.539 L92.381,69.872 L92.617,73.334 L92.855,76.912 L93.093,80.595 L93.329,84.37 L93.563,88.227 L93.791,92.153 L94.014,96.136 L94.229,100.165 L94.533,106.27 L94.897,114.46 L95.133,120.585 L95.268,124.639 L95.386,128.658 L95.483,132.627 L95.523,134.588 L95.523,134.588 C95.574,135.954 97.029,136.18 98.775,135.093 C100.521,134.005 101.895,132.016 101.845,130.649 C101.845,130.649 101.845,130.649 101.845,130.649 L101.741,128.714 L101.516,124.806 L101.27,120.853 L101.003,116.864 L100.571,110.842 L99.943,102.803 L99.443,96.813 L99.099,92.86 L98.748,88.951 L98.393,85.101 L98.036,81.318 L97.679,77.616 L97.323,74.005 L96.97,70.497 L96.622,67.104 L96.282,63.837 L96.033,61.476 L95.87,59.947 L95.71,58.457 L95.554,57.005 L95.4,55.595 L95.25,54.226 L95.104,52.902 L94.963,51.622 L94.825,50.389 L94.692,49.204 L94.564,48.069 L94.441,46.984 L94.323,45.952 L94.211,44.973 L94.105,44.05 L94.004,43.183 L93.91,42.374 L93.823,41.624 L93.742,40.936 L93.668,40.31 L93.602,39.748 L93.543,39.251 L93.491,38.82 L93.448,38.458 L93.412,38.165 L93.386,37.943 L93.368,37.794 L93.358,37.718 L93.357,37.708 C93.286,37.027 92.494,36.961 91.589,37.562 C90.683,38.162 90.007,39.201 90.079,39.883 L90.079,39.883" fill="#000000"/>
    <path d="M74.241,27.882 L75.414,27.896 L77.713,27.929 L79.95,27.969 L82.128,28.015 L84.247,28.067 L86.308,28.126 L88.312,28.191 L90.259,28.262 L92.15,28.34 L93.985,28.424 L95.767,28.514 L97.493,28.61 L99.165,28.712 L100.785,28.82 L102.353,28.935 L103.869,29.055 L105.334,29.182 L106.748,29.314 L108.113,29.453 L109.429,29.597 L110.695,29.747 L111.914,29.903 L113.085,30.065 L114.21,30.232 L115.288,30.405 L116.32,30.583 L117.308,30.767 L118.251,30.956 L119.149,31.151 L120.005,31.35 L120.817,31.555 L121.587,31.764 L122.314,31.978 L123,32.196 L123.645,32.418 L124.25,32.643 L124.814,32.872 L125.338,33.104 L125.823,33.338 L126.269,33.574 L126.676,33.811 L127.046,34.047 L127.379,34.283 L127.675,34.517 L128.073,34.878 L128.482,35.346 L128.749,35.768 L128.913,36.156 L128.996,36.512 L129.021,36.852 L129,37.202 L128.936,37.591 L128.821,38.037 L128.645,38.55 L128.403,39.13 L128.091,39.772 L127.71,40.468 L127.263,41.214 L126.754,42.003 L126.188,42.83 L125.571,43.693 L124.909,44.589 L124.208,45.515 L123.473,46.47 L122.32,47.956 L120.723,50.022 L119.095,52.189 L117.479,54.46 L116.292,56.245 L115.521,57.479 L114.787,58.728 L114.087,60.005 L113.427,61.312 L112.812,62.65 L112.25,64.02 L111.747,65.423 L111.311,66.857 L110.949,68.323 L110.669,69.82 L110.479,71.346 L110.387,72.897 L110.4,74.471 L110.451,75.318 L110.451,75.318 C110.454,75.37 110.459,75.422 110.466,75.473 L110.466,75.473 L110.522,75.964 L110.775,77.217 L111.191,78.503 L111.736,79.721 L112.391,80.877 L113.144,81.983 L113.982,83.045 L114.898,84.073 L115.885,85.073 L116.937,86.05 L118.047,87.008 L119.211,87.949 L120.421,88.877 L121.673,89.792 L123.608,91.142 L126.282,92.917 L129.018,94.671 L131.758,96.402 L134.449,98.116 L137.039,99.814 L138.875,101.074 L140.032,101.904 L141.139,102.734 L142.182,103.558 L143.153,104.375 L144.045,105.183 L144.849,105.978 L145.558,106.757 L146.165,107.514 L146.663,108.24 L147.047,108.925 L147.317,109.557 L147.475,110.12 L147.534,110.606 L147.512,111.014 L147.43,111.364 L147.348,111.545 L147.292,111.653 L147.198,111.848 L147.078,112.064 L146.929,112.302 L146.745,112.565 L146.521,112.853 L146.255,113.164 L145.943,113.497 L145.584,113.85 L145.175,114.221 L144.716,114.608 L144.204,115.01 L143.64,115.425 L143.023,115.851 L142.352,116.288 L141.627,116.734 L140.847,117.188 L140.012,117.651 L139.122,118.12 L138.176,118.595 L137.173,119.077 L136.113,119.565 L134.995,120.058 L133.819,120.556 L132.585,121.059 L131.291,121.567 L129.937,122.079 L128.523,122.596 L127.047,123.118 L125.51,123.644 L123.91,124.174 L122.247,124.708 L120.519,125.247 L118.728,125.79 L116.87,126.337 L114.946,126.889 L112.955,127.444 L110.898,128.004 L108.771,128.568 L106.575,129.136 L104.309,129.709 L101.973,130.285 L99.565,130.866 L98.338,131.158 L98.338,131.158 C96.444,131.626 95.063,133.72 95.254,135.836 C95.446,137.951 97.136,139.287 99.03,138.819 C99.03,138.819 99.03,138.819 99.03,138.819 L100.279,138.499 L102.715,137.863 L105.082,137.232 L107.379,136.607 L109.608,135.986 L111.768,135.37 L113.863,134.759 L115.892,134.152 L117.855,133.55 L119.755,132.953 L121.592,132.359 L123.367,131.77 L125.08,131.185 L126.733,130.603 L128.326,130.025 L129.861,129.451 L131.339,128.88 L132.76,128.312 L134.125,127.747 L135.436,127.184 L136.693,126.624 L137.898,126.065 L139.052,125.509 L140.155,124.953 L141.209,124.398 L142.215,123.843 L143.174,123.288 L144.087,122.731 L144.956,122.173 L145.782,121.611 L146.565,121.044 L147.308,120.472 L148.01,119.894 L148.673,119.306 L149.297,118.707 L149.883,118.096 L150.431,117.47 L150.94,116.827 L151.408,116.166 L151.834,115.486 L152.216,114.785 L152.55,114.067 L152.832,113.333 L153.078,112.516 L153.313,111.317 L153.406,109.843 L153.291,108.442 L153,107.133 L152.564,105.916 L152.009,104.781 L151.352,103.711 L150.604,102.692 L149.774,101.714 L148.868,100.767 L147.892,99.845 L146.852,98.942 L145.751,98.054 L144.597,97.179 L143.394,96.315 L142.141,95.453 L140.203,94.178 L137.532,92.5 L134.798,90.832 L132.052,89.17 L129.347,87.51 L126.728,85.845 L124.853,84.591 L123.665,83.758 L122.533,82.926 L121.461,82.095 L120.459,81.268 L119.533,80.445 L118.69,79.631 L117.938,78.829 L117.281,78.044 L116.726,77.284 L116.274,76.556 L115.924,75.869 L115.672,75.229 L115.497,74.535 L115.432,74.044 L115.447,74.199 L115.4,73.681 L115.358,72.544 L115.395,71.415 L115.504,70.29 L115.685,69.168 L115.933,68.045 L116.247,66.921 L116.623,65.798 L117.057,64.673 L117.546,63.55 L118.086,62.429 L118.672,61.311 L119.299,60.198 L119.954,59.105 L121.003,57.465 L122.494,55.292 L124.039,53.161 L125.596,51.076 L126.742,49.548 L127.49,48.542 L128.219,47.545 L128.923,46.558 L129.597,45.578 L130.238,44.602 L130.839,43.629 L131.396,42.653 L131.902,41.669 L132.349,40.673 L132.727,39.657 L133.023,38.617 L133.218,37.553 L133.294,36.475 L133.232,35.403 L133.024,34.366 L132.672,33.389 L132.187,32.489 L131.581,31.669 L130.882,30.941 L130.288,30.436 L129.844,30.106 L129.372,29.791 L128.871,29.488 L128.34,29.197 L127.78,28.918 L127.188,28.648 L126.564,28.388 L125.907,28.138 L125.216,27.896 L124.491,27.663 L123.729,27.438 L122.932,27.222 L122.097,27.013 L121.224,26.811 L120.312,26.617 L119.359,26.431 L118.367,26.252 L117.332,26.08 L116.256,25.915 L115.136,25.758 L113.972,25.608 L112.764,25.465 L111.511,25.329 L110.211,25.2 L108.865,25.079 L107.471,24.965 L106.029,24.857 L104.538,24.757 L102.997,24.665 L101.405,24.579 L99.763,24.501 L98.068,24.429 L96.321,24.366 L94.521,24.309 L92.667,24.26 L90.758,24.218 L88.794,24.184 L86.774,24.157 L84.697,24.137 L82.562,24.125 L80.37,24.12 L78.118,24.123 L75.808,24.133 L74.632,24.141 C73.731,24.139 72.913,24.975 72.805,26.008 C72.697,27.04 73.34,27.88 74.241,27.882 L74.241,27.882" fill="#000000"/>
  </g>
  <g id="Layer_2"/>
</svg>
